<svg width="1474" height="32" viewBox="0 0 1474 32" fill="none" xmlns="http://www.w3.org/2000/svg">
<path fill-rule="evenodd" clip-rule="evenodd" d="M123.283 3.22004H119.52V0H123.283V3.22004ZM0 0.000506057V23.1324H3.76523V2.21754H7.25028C7.25028 2.21754 9.78242 2.21754 10.6493 3.30354C11.3859 4.22608 11.5205 5.89961 11.5205 7.02964C11.5205 8.23911 11.4408 10.108 11.0176 10.7922C10.3755 11.8377 9.32126 12.0472 8.35727 12.0472H6.05676V14.1003H9.36506C9.36506 14.1003 12.3499 14.2197 13.6337 12.9682C15.2076 11.4338 15.6075 9.37116 15.6075 6.60961C15.6075 4.10058 14.6583 1.56928 12.7182 0.709492C11.1121 0.0010121 8.21639 0.00101211 8.21639 0.00101211L0 0.000506057ZM18.5665 23.1329H22.3312V0.00101211H18.5665V23.1329ZM49.2498 22.7108L42.3615 5.39608H46.743L51.3582 18.3628L56.3191 5.39608H59.8084L48.4203 32H45.2951L49.2498 22.7108ZM62.6434 22.9952V20.8091C62.6434 20.8091 66.6249 20.9589 67.4544 20.9589C69.2916 20.9589 70.2092 20.5834 70.8998 19.8729C71.3077 19.4468 71.676 17.5597 71.676 16.8871C71.676 16.2171 71.5415 14.7683 71.2681 14.1747C70.9859 13.5932 70.3442 13.0502 69.3824 12.9718C69.1837 12.9553 68.9535 12.9325 68.6967 12.907C68.0669 12.8445 67.2767 12.7662 66.3959 12.7273C64.6574 12.6484 63.5082 11.7785 62.9547 11.153C62.4059 10.527 61.6709 9.58421 61.6709 6.69969C61.6709 3.81162 62.4497 2.19274 63.2306 1.44176C64.0115 0.686719 65.1539 0.355758 66.0319 0.206471C67.0418 0.0409906 68.6917 0.0308695 68.6917 0.0308695L73.9617 0.178132V2.3643C73.9617 2.3643 70.1189 2.21704 69.2921 2.21704C67.4544 2.21704 66.903 2.59455 66.215 3.30303C65.8087 3.72458 65.491 4.89155 65.491 5.56005C65.491 6.23158 65.5728 7.58832 65.8488 8.17535C66.1221 8.75731 66.7663 9.30183 67.7303 9.38482C67.9527 9.40128 68.2151 9.42646 68.5106 9.45481C69.1238 9.51364 69.8793 9.58613 70.7147 9.62267C72.4611 9.70162 73.6082 10.5695 74.1554 11.1975C74.7094 11.825 75.4455 13.1474 75.4455 16.0294C75.4455 18.9179 74.6603 20.9811 73.8837 21.7341C73.1012 22.4846 71.9604 22.8201 71.0829 22.9654C70.0704 23.1324 68.4205 23.145 68.4205 23.145L62.6434 22.9952ZM79.4233 2.21653H83.1864L83.1859 2.21704V5.39608H87.4376V7.57213H83.1859V17.5718C83.1859 17.5718 83.1859 18.8213 83.3273 19.8668C83.4598 20.9143 84.2428 20.9548 84.8891 20.9548C85.5265 20.9548 86.5829 20.8819 86.5829 20.8819V23.06L82.6831 23.1329C80.5261 23.1329 79.6988 21.8389 79.6064 21.2939C79.5135 20.7488 79.4233 19.1988 79.4233 19.1988V2.21653ZM119.52 23.1329H123.283V5.3971H119.52V23.1329ZM135.178 5.24477C137.74 5.24477 139.727 5.79385 140.793 6.62125C141.871 7.45118 143.194 9.20113 143.194 14.2652C143.194 19.3299 141.871 21.0778 140.793 21.9097C139.726 22.7371 137.74 23.2903 135.178 23.2903C132.61 23.2903 130.632 22.7371 129.557 21.9097C128.482 21.0778 127.164 19.3299 127.164 14.2652C127.164 9.20113 128.482 7.45068 129.557 6.62125C130.632 5.79385 132.61 5.24477 135.178 5.24477ZM131.449 14.2652C131.449 10.5432 132.08 9.2578 132.598 8.64548L132.598 8.64598C133.114 8.03821 134.065 7.63235 135.296 7.63235C136.529 7.63235 137.476 8.03871 137.999 8.64598C138.514 9.2573 139.145 10.5432 139.145 14.2657C139.145 17.9853 138.514 19.2732 137.999 19.883C137.476 20.4882 136.529 20.8981 135.296 20.8981C134.065 20.8981 133.114 20.4887 132.598 19.8825C132.08 19.2732 131.449 17.9858 131.449 14.2652ZM150.992 7.8869L154.684 7.73761C155.649 7.73761 156.786 7.9876 157.338 8.65813C157.851 9.28969 158.175 10.0427 158.175 11.2557V23.1126H161.944V10.9571C161.944 8.65813 161.206 7.32163 160.099 6.48208C158.52 5.28121 155.692 5.39608 155.692 5.39608L147.259 5.54132V23.1126H150.992V7.8869ZM108.258 2.21653H112.023L112.023 5.39608H116.264V7.57213H112.023V17.5718C112.023 17.5718 112.023 18.8213 112.158 19.8668C112.295 20.9143 113.08 20.9548 113.72 20.9548C114.359 20.9548 115.418 20.8819 115.418 20.8819V23.06L111.519 23.1329C109.353 23.1329 108.532 21.8389 108.438 21.2939C108.347 20.7488 108.258 19.1988 108.258 19.1988V2.21653ZM36.6181 11.2557C36.6181 10.0427 36.2963 9.28969 35.7781 8.65813C35.2267 7.9876 34.095 7.7371 33.1262 7.7371L28.1611 7.8869V5.54132L34.1366 5.39608C34.1366 5.39608 36.9648 5.2807 38.5456 6.48208C39.6483 7.32214 40.3807 8.65813 40.3807 10.9571V22.9431L33.1663 23.0924C33.1663 23.0924 29.9002 23.1035 28.254 22.4649C26.6505 21.8389 25.7751 20.1213 25.7751 17.7373C25.7751 15.4363 26.5096 14.0998 27.6124 13.2602C29.1927 12.0573 32.0192 12.1762 32.0192 12.1762H34.3239V14.2192H33.0312C32.0635 14.2192 31.0684 14.3907 30.5144 15.0608C29.9989 15.6862 29.7229 16.2297 29.7229 17.4428C29.7229 19.0353 30.0448 19.7453 30.8257 20.2868C31.5164 20.7691 32.7516 20.8738 34.1303 20.8738L36.6181 20.7286V11.2557ZM99.2652 8.65813C99.7833 9.28969 100.098 10.0427 100.098 11.2557L100.099 20.7286L97.6174 20.8738C96.2392 20.8738 94.9971 20.7691 94.3091 20.2868C93.5303 19.7453 93.2063 19.0353 93.2063 17.4428C93.2063 16.2297 93.4838 15.6862 94.002 15.0608C94.5491 14.3907 95.5506 14.2192 96.5125 14.2192H97.8068V12.1762H95.5042C95.5042 12.1762 92.6718 12.0573 91.0931 13.2602C89.9967 14.0998 89.2559 15.4363 89.2559 17.7373C89.2559 20.1213 90.1333 21.8389 91.7389 22.4649C93.3809 23.1035 96.6513 23.0924 96.6513 23.0924L103.866 22.9431V10.9571C103.866 8.65813 103.13 7.32214 102.027 6.48208C100.448 5.2807 97.6216 5.39608 97.6216 5.39608L91.6508 5.54132V7.8869L96.6138 7.7371C97.5751 7.7371 98.7075 7.9876 99.2652 8.65813ZM168.767 23.2781C169.743 23.2803 170.679 22.9097 171.369 22.2484C172.059 21.5871 172.446 20.6895 172.444 19.7539C172.447 18.818 172.059 17.92 171.369 17.2591C170.679 16.597 169.743 16.2263 168.767 16.2292C166.749 16.2292 165.093 17.8102 165.093 19.7539C165.093 20.6942 165.472 21.5808 166.172 22.2488C166.861 22.9087 167.794 23.279 168.767 23.2781ZM166.606 17.6806C166.032 18.2337 165.71 18.9706 165.71 19.7539H165.709C165.709 20.5324 166.031 21.279 166.606 21.8288C167.179 22.3793 167.956 22.6888 168.767 22.6891C170.457 22.6891 171.828 21.3708 171.828 19.7539C171.828 18.9759 171.505 18.2297 170.931 17.6806C170.354 17.1275 169.584 16.8188 168.767 16.8188C167.956 16.8188 167.178 17.129 166.606 17.6806Z" fill="#6994A8"/>
<path fill-rule="evenodd" clip-rule="evenodd" d="M170.488 20.9473C170.512 21.0298 170.556 21.0848 170.612 21.1032L170.612 21.1027L170.667 21.1247V21.3333H169.848L169.818 21.2893C169.799 21.2618 169.789 21.2304 169.776 21.1931C169.772 21.1808 169.768 21.1678 169.763 21.1541C169.75 21.1027 169.741 21.0151 169.732 20.8762L169.7 20.3077C169.691 20.1151 169.61 19.989 169.459 19.9272C169.37 19.8937 169.213 19.8753 169.004 19.8753H167.844V21.3333H167.111V17.7778H169.082C169.405 17.7778 169.669 17.8144 169.888 17.897C170.3 18.0524 170.512 18.349 170.512 18.7695C170.512 18.9891 170.455 19.1697 170.348 19.3128C170.267 19.4187 170.154 19.5026 170.027 19.5723C170.13 19.6236 170.22 19.6787 170.278 19.7474C170.37 19.8501 170.425 20.0042 170.434 20.2197L170.451 20.6786C170.452 20.769 170.464 20.859 170.488 20.9473ZM169.584 19.2174C169.702 19.1445 169.763 19.0125 169.763 18.8135C169.763 18.6049 169.68 18.4627 169.505 18.3894C169.405 18.349 169.265 18.3293 169.098 18.3293H167.844V19.3343H169.025C169.261 19.3343 169.449 19.2926 169.584 19.2174Z" fill="#6994A8"/>
<path fill-rule="evenodd" clip-rule="evenodd" d="M785.77 3H781.07V28.2231H785.77V3ZM675.77 28.2228V3.48639L681.883 3.48736C687.705 3.48736 692.072 5.15602 692.072 11.3846C692.072 17.6141 686.291 18.1092 686.291 18.1092L693.319 28.2234H687.414L682.381 20.3362V14.6425H683.588C683.588 14.6425 686.873 14.7258 686.873 11.3839C686.873 8.04211 683.172 8.20736 683.172 8.20736H680.802V28.2228H675.77ZM751.542 10.1342C751.542 13.3563 749.339 15.0566 749.339 15.0566C752.024 16.1314 753.538 17.6122 753.537 21.4788C753.537 28.1395 746.107 28.2231 746.107 28.2231H735.74V4.00442H744.156C749.182 4.00442 751.542 6.91052 751.542 10.1342ZM745.284 24.0079H740.772V8.22737H743.184C743.184 8.22737 746.461 7.98337 746.461 10.8194C746.461 13.6555 743.854 13.4054 743.854 13.4054H742.352V17.6567H745.283C746.051 17.6567 748.499 18.0263 748.499 20.82C748.498 23.6132 745.284 24.0079 745.284 24.0079ZM772.982 3H777.743V28.2231H772.982V3ZM759.777 13.4473H754.954V21.9458L754.953 22.0255C754.948 23.2842 754.926 29 762.771 29C770.798 29 770.174 22.1934 770.174 22.1934V13.4873H765.309V21.9035C765.309 21.9035 765.349 24.7512 762.647 24.7512C759.945 24.7512 759.777 21.9035 759.777 21.9035V13.4473ZM722.973 3.00032V14.4379C722.973 14.4379 720.644 12.6643 717.981 12.6643C715.32 12.6643 710.829 14.5205 710.829 20.3779C710.829 26.2356 714.655 28.4645 717.94 28.4645C721.226 28.4645 723.056 26.3189 723.056 26.3189V28.2238H727.796V3.00032H722.973ZM719.304 24.3375L719.312 24.3375C719.562 24.3375 723.18 24.2142 723.18 20.5012C723.18 16.7882 719.353 16.6646 719.353 16.6646C719.353 16.6646 715.943 16.7882 715.943 20.5841C715.943 24.3423 719.002 24.3379 719.304 24.3375ZM701.346 12.6637C709.414 12.6637 709.081 20.4608 709.081 20.4608V21.6976H698.144C698.144 23.4709 699.641 24.9978 701.679 24.9978C703.717 24.9978 704.756 23.059 704.756 23.059L708.624 24.9562C706.836 27.6386 704.424 28.7102 701.721 28.7102C693.32 28.7102 693.153 21.7803 693.153 20.9143C693.153 20.0474 693.279 12.6637 701.346 12.6637ZM704.216 18.8506H698.227C698.227 18.8506 698.56 16.0462 701.264 16.0465C703.967 16.0465 704.216 18.8506 704.216 18.8506Z" fill="#6994A8"/>
<path fill-rule="evenodd" clip-rule="evenodd" d="M510.778 23.074H509.855V25.7383H509.415V23.074H508.491V22.754H510.778V23.074ZM512.853 24.9589H512.867L513.698 22.754H514.382V25.7383H513.943V23.2495H513.93L513 25.7383H512.696L511.775 23.2495H511.758V25.7383H511.317V22.754H512.01L512.853 24.9589Z" fill="#6994A8"/>
<path fill-rule="evenodd" clip-rule="evenodd" d="M421.273 20.0847C421.103 20.4707 420.201 22.2121 417.937 22.2121C415.317 22.2121 414.298 20.0423 414.298 18.4248C414.298 15.7564 416.095 13.3574 418.742 13.3574C421.588 13.3574 422.267 15.4777 422.329 15.8627H426.525C426.773 14.2999 425.531 9.51123 418.902 9.51123C414.045 9.51123 410.173 13.3812 410.173 18.5579C410.173 22.7933 412.821 26.0573 417.729 26.0573C423.837 26.0573 425.487 21.2656 425.699 20.0847H421.273Z" fill="#6994A8"/>
<path fill-rule="evenodd" clip-rule="evenodd" d="M389.126 21.2542C389.126 21.0096 389.191 20.5471 389.403 19.5737C389.62 18.6013 392.576 4.96826 392.576 4.96826H388.645L385.383 20.0031C385.244 20.6286 385.186 21.2614 385.186 21.8116C385.186 25.1056 387.734 26.0748 389.784 26.0748C390.514 26.0748 391.19 25.9592 391.353 25.9314C391.426 25.6052 392.041 22.7706 392.068 22.6446C391.979 22.6581 391.552 22.689 391.047 22.689C389.586 22.689 389.126 22.0676 389.126 21.2542Z" fill="#6994A8"/>
<path fill-rule="evenodd" clip-rule="evenodd" d="M444.959 9.5597H439.475L432.434 15.906L434.805 4.93622H430.854L426.35 25.7424H430.312L431.404 20.6843L433.84 18.752L437.204 25.7424H441.608L436.835 16.3798L444.959 9.5597Z" fill="#6994A8"/>
<path fill-rule="evenodd" clip-rule="evenodd" d="M367.516 19.3146C367.849 17.825 370.634 4.93933 370.634 4.93933C370.634 4.93933 375.439 4.93933 378.13 4.93933C383.565 4.93933 384.9 7.95869 384.9 9.79404C384.9 13.8477 381.069 14.9244 380.599 15.0689C381.033 15.2113 383.524 16.1992 383.524 19.3848C383.524 22.8438 380.329 25.7455 375.375 25.7455C375.375 25.7455 373.6 25.7455 373.116 25.7455C368.959 25.7455 366.722 22.8965 367.516 19.3146ZM379.247 19.0575C379.247 18.0779 378.616 16.8413 375.817 16.8413H372.186L371.098 21.8735H375.214C377.873 21.8735 379.247 20.673 379.247 19.0575ZM380.591 10.6746C380.591 9.65881 379.825 8.78965 377.932 8.78965H373.928L373.017 12.992H377.194C379.444 12.992 380.591 11.9081 380.591 10.6746Z" fill="#6994A8"/>
<path fill-rule="evenodd" clip-rule="evenodd" d="M443.156 19.3146C443.49 17.825 446.275 4.93933 446.275 4.93933C446.275 4.93933 451.081 4.93933 453.768 4.93933C459.204 4.93933 460.544 7.95869 460.544 9.79404C460.544 13.8477 456.713 14.9244 456.24 15.0689C456.674 15.2113 459.167 16.1992 459.167 19.3848C459.167 22.8438 455.973 25.7455 451.019 25.7455C451.019 25.7455 449.242 25.7455 448.757 25.7455C444.603 25.7455 442.37 22.8965 443.156 19.3146ZM454.888 19.0575C454.888 18.0779 454.256 16.8413 451.46 16.8413H447.83L446.743 21.8735H450.854C453.517 21.8735 454.888 20.673 454.888 19.0575ZM456.234 10.6746C456.234 9.65881 455.465 8.78965 453.577 8.78965H449.569L448.664 12.992H452.837C455.087 12.992 456.234 11.9081 456.234 10.6746Z" fill="#6994A8"/>
<path fill-rule="evenodd" clip-rule="evenodd" d="M487.722 9.56799C483.531 9.56799 480.682 12.0526 479.715 16.7123C479.308 18.7169 477.781 25.759 477.781 25.759H481.713C481.713 25.759 483.158 19.0617 483.617 16.9548C484.214 14.2039 485.675 13.2624 487.635 13.2624C488.268 13.2624 488.671 13.3357 488.88 13.3698C488.992 12.8083 489.536 10.3226 489.666 9.71251C489.244 9.65883 488.572 9.56799 487.722 9.56799Z" fill="#6994A8"/>
<path fill-rule="evenodd" clip-rule="evenodd" d="M501.098 31.9494L514.284 9.568H510.04L503.981 20.1012L502.562 9.55768C502.562 9.55768 500.406 9.55768 498.023 9.55768C492.826 9.55768 490.13 11.9391 489.172 16.4893C488.692 18.7561 487.171 25.759 487.171 25.759H491.1C491.1 25.759 492.543 19.1112 493.121 16.4335C493.671 13.8292 495.603 13.0261 497.685 13.471L498.515 9.64955C499.125 13.279 501 24.8743 501 24.8743L496.887 31.9494H501.098Z" fill="#6994A8"/>
<path fill-rule="evenodd" clip-rule="evenodd" d="M400.473 18.849C401.341 18.7241 403.877 18.336 404.217 18.2895C404.153 18.5579 404.055 18.9853 403.978 19.3053C403.52 21.2614 401.527 22.5207 399.33 22.5207C397.929 22.5207 397.105 21.7651 397.105 20.864C397.105 20.129 397.786 19.2526 400.473 18.849ZM399.007 14.6353C399.101 14.4784 400.113 12.9156 402.632 12.9156C404.198 12.9156 405 13.4916 405 14.1801C405 15.1587 403.421 15.4147 400.692 15.8069C395.992 16.4789 393.024 17.9396 393.024 21.3295C393.024 23.7347 395.017 26.0748 398.565 26.0748C401.515 26.0748 403.053 24.2993 403.188 24.1641C403.201 24.5915 403.257 25.2294 403.3 25.7424C403.629 25.7424 406.352 25.7424 407.368 25.7424C407.219 25.0405 406.935 23.6975 407.415 21.5473C407.671 20.4067 408.392 17.1447 408.758 15.3424C409.449 11.9391 407.58 9.52875 402.785 9.52875C396.629 9.52875 394.858 13.9582 394.567 14.6353H399.007Z" fill="#6994A8"/>
<path fill-rule="evenodd" clip-rule="evenodd" d="M471.996 20.9012C471.857 21.217 470.905 22.5507 468.763 22.5507C465.687 22.5507 464.986 19.9432 465.063 19.2258C466.7 19.2258 476.187 19.2258 477.046 19.2258C477.112 18.9306 477.382 17.8643 477.382 16.767C477.382 12.9806 474.814 9.51123 469.628 9.51123C464.886 9.51123 461.086 13.4947 461.086 18.2328C461.086 22.8098 463.835 26.0573 468.7 26.0573C474.711 26.0573 476.33 21.345 476.481 20.9012C475.416 20.9012 471.996 20.9012 471.996 20.9012ZM469.671 13.1035C472.32 13.1035 473.33 14.719 473.223 16.0155C471.7 16.0155 467.179 16.0155 465.649 16.0155C465.847 15.1897 467.111 13.1035 469.671 13.1035Z" fill="#6994A8"/>
<path fill-rule="evenodd" clip-rule="evenodd" d="M342.653 2.5672C342.653 1.56591 342.039 0.302429 339.473 0.302429C338.415 0.302429 335.514 0.302429 335.514 0.302429L334.396 5.50191C334.396 5.50191 336.53 5.50191 338.511 5.50191C341.735 5.50191 342.653 3.97933 342.653 2.5672Z" fill="#6994A8"/>
<path fill-rule="evenodd" clip-rule="evenodd" d="M353.302 2.5672C353.302 1.56591 352.692 0.302429 350.123 0.302429C349.072 0.302429 346.171 0.302429 346.171 0.302429L345.048 5.50191C345.048 5.50191 347.182 5.50191 349.165 5.50191C352.388 5.50191 353.302 3.97933 353.302 2.5672Z" fill="#6994A8"/>
<path fill-rule="evenodd" clip-rule="evenodd" d="M341.225 10.3907C341.225 9.3904 340.612 8.13208 338.042 8.13208C336.991 8.13208 334.09 8.13208 334.09 8.13208L332.965 13.3233C332.965 13.3233 335.103 13.3233 337.09 13.3233C340.305 13.3233 341.225 11.8018 341.225 10.3907Z" fill="#6994A8"/>
<path fill-rule="evenodd" clip-rule="evenodd" d="M351.875 10.3907C351.875 9.3904 351.264 8.13208 348.698 8.13208C347.64 8.13208 344.742 8.13208 344.742 8.13208L343.619 13.3233C343.619 13.3233 345.754 13.3233 347.736 13.3233C350.958 13.3233 351.875 11.8018 351.875 10.3907Z" fill="#6994A8"/>
<path fill-rule="evenodd" clip-rule="evenodd" d="M363.019 7.21857C363.019 6.21831 362.411 4.9538 359.843 4.9538C358.785 4.9538 355.888 4.9538 355.888 4.9538L354.762 10.1543C354.762 10.1543 356.898 10.1543 358.881 10.1543C362.103 10.1543 363.019 8.6307 363.019 7.21857Z" fill="#6994A8"/>
<path fill-rule="evenodd" clip-rule="evenodd" d="M361.485 15.3662C361.485 14.369 360.874 13.1014 358.305 13.1014C357.252 13.1014 354.35 13.1014 354.35 13.1014L353.229 18.2998C353.229 18.2998 355.367 18.2998 357.349 18.2998C360.567 18.2998 361.485 16.7793 361.485 15.3662Z" fill="#6994A8"/>
<path fill-rule="evenodd" clip-rule="evenodd" d="M350.343 18.5373C350.343 17.5391 349.735 16.2725 347.17 16.2725C346.112 16.2725 343.211 16.2725 343.211 16.2725L342.088 21.4741C342.088 21.4741 344.228 21.4741 346.215 21.4741C349.429 21.4741 350.343 19.9546 350.343 18.5373Z" fill="#6994A8"/>
<path fill-rule="evenodd" clip-rule="evenodd" d="M1250.31 25.5485C1248.23 28.9674 1246.28 29 1243.9 29H1231.77V24.1617H1235.56C1238.07 24.1617 1240.08 22.8767 1241.15 21.0497L1249.27 7.45017C1251.31 4.03395 1253.26 4 1255.64 4H1267.77V8.80438H1263.98C1261.47 8.80438 1259.46 10.0894 1258.38 11.9503L1250.31 25.5485ZM1248.86 29H1267.77V9.88566H1265.42V26.5972H1251.04C1250.34 27.715 1249.6 28.492 1248.86 29ZM1250.67 4H1231.77V23.113H1234.12V6.36758H1248.5C1249.23 5.25104 1249.97 4.50669 1250.67 4Z" fill="#6994A8"/>
<path fill-rule="evenodd" clip-rule="evenodd" d="M1461.7 12.0326H1465.56C1466.39 12.0326 1467.1 12.6918 1467.1 13.5482C1467.1 14.3729 1466.39 15.0652 1465.56 15.0652H1461.7V12.0326ZM1464.52 18.0328H1461.7V23.9987H1455.1V9H1468.88C1470.62 9 1473 10.3184 1473.3 13.0863C1473.47 14.8348 1472.76 16.4497 1470.35 17.5709L1473.77 23.9987H1467.8L1464.52 18.0328ZM1362.22 9H1368.89V14.7025H1374.15V9H1380.79V23.9987H1374.15V18.3293H1368.89V23.9987H1362.22V9ZM1406.1 24H1412.73V9H1406.1V24ZM1346.77 9H1339.86V23.9987H1343.01V14.7025L1349.28 23.9987H1356.19V9H1353.04V18.3293L1346.77 9ZM1325.11 9H1318.21V23.9987H1321.33V14.7025L1327.6 23.9987H1334.53V9H1331.38V18.3293L1325.11 9ZM1387.09 9H1400.53V12.1637H1393.66V15.0321H1400.53V17.9985H1393.66V20.802H1400.53V23.9987H1387.09V9ZM1435.79 9H1449.23V12.1637H1442.36V15.0321H1449.23V17.9985H1442.36V20.802H1449.23V23.9987H1435.79V9ZM1299.07 9H1312.51V12.1637H1305.64V15.0321H1312.51V17.9985H1305.64V20.802H1312.51V23.9987H1299.07V9ZM1430.46 18.9885C1431.57 20.438 1431.2 23.9987 1427.71 23.9987H1417.83V20.9331H1422.22C1423.02 20.9331 1423.16 20.1746 1422.69 19.5154L1418.56 14.0102C1417.42 12.5594 1417.79 9 1421.28 9H1431.17V12.0326H1426.81C1425.97 12.0326 1425.84 12.8229 1426.34 13.4502L1430.46 18.9885ZM1293.37 18.9885C1294.48 20.438 1294.11 23.9987 1290.66 23.9987H1280.77V20.9331H1285.13C1285.96 20.9331 1286.1 20.1746 1285.6 19.5154L1281.47 14.0102C1280.37 12.5594 1280.74 9 1284.22 9H1294.08V12.0326H1289.72C1288.91 12.0326 1288.78 12.8229 1289.28 13.4502L1293.37 18.9885Z" fill="#6994A8"/>
<path fill-rule="evenodd" clip-rule="evenodd" d="M967.347 2H946.635V7.77611H953.345V29.8835H960.005V7.77611H965.433L967.347 2ZM1001.53 7.77611V2H1022.24L1020.32 7.77611H1014.91V29.8835H1008.24V7.77611H1001.53ZM971.854 8.5827C973.636 8.58146 975.08 7.1159 975.079 5.30927C975.077 3.50265 973.632 2.03909 971.85 2.04033C970.067 2.04157 968.624 3.50713 968.625 5.31376C968.625 6.18151 968.965 7.01366 969.571 7.62683C970.177 8.24001 970.998 8.58389 971.854 8.5827ZM975.163 29.8835H968.625V10.8949H975.163V29.8835ZM998.684 8.4169H991.037L984.446 15.0982V2.02241H977.95L977.93 29.8835H984.488V22.6241L986.528 20.7399L992.893 29.8745H999.904L990.683 16.5164L998.684 8.4169ZM1069.4 8.4169L1061.4 16.5209L1070.63 29.8745H1063.62L1057.26 20.7399L1055.2 22.6241V29.8835H1048.64L1048.67 2.02241H1055.16V15.0982L1061.75 8.4169H1069.4ZM1044.59 18.6001C1044.59 24.895 1039.49 30 1033.2 30C1026.9 30 1021.8 24.8938 1021.8 18.5979C1021.8 12.302 1026.9 7.19581 1033.2 7.19581C1039.49 7.19581 1044.59 12.303 1044.59 18.6001ZM1035.34 13.3608C1037.42 14.2382 1038.79 16.3052 1038.79 18.5979V18.6024C1038.78 21.7313 1036.28 24.2665 1033.2 24.2665C1030.93 24.2665 1028.89 22.8854 1028.03 20.7672C1027.16 18.649 1027.64 16.2108 1029.24 14.5896C1030.84 12.9684 1033.25 12.4835 1035.34 13.3608Z" fill="#6994A8"/>
</svg>
